M48
; DRILL file {KiCad (5.1.7)-1} date 11/02/20 14:52:50
; FORMAT={-:-/ absolute / inch / decimal}
; #@! TF.CreationDate,2020-11-02T14:52:50+01:00
; #@! TF.GenerationSoftware,Kicad,Pcbnew,(5.1.7)-1
; #@! TF.FileFunction,Plated,1,2,PTH
FMAT,2
INCH
T1C0.0157
T2C0.0236
T3C0.0256
%
G90
G05
T1
X5.4787Y-3.5996
X5.4829Y-3.7522
X5.6761Y-3.8285
X5.7019Y-3.686
X5.8061Y-3.786
X5.8405Y-3.5235
X5.9786Y-3.8285
X5.9811Y-3.586
X5.9811Y-3.7135
X6.1211Y-3.731
X6.1411Y-3.7985
X6.1561Y-3.826
X6.1618Y-3.7353
X6.1986Y-3.6485
X6.2461Y-3.8135
X6.249Y-3.6435
X6.2786Y-3.6435
X6.3196Y-3.8586
X6.3361Y-3.7661
X6.3361Y-3.796
X6.4059Y-3.8717
X6.4261Y-3.8187
X6.4536Y-3.761
X6.4536Y-3.796
X6.4986Y-3.7185
X6.5686Y-3.7935
X6.6761Y-3.8485
X6.7211Y-3.6685
X6.7461Y-3.8735
T3
X6.7736Y-3.621
X6.7736Y-3.671
X6.7736Y-3.721
X5.5086Y-3.861
X5.5586Y-3.861
X5.5086Y-3.541
X5.5586Y-3.541
T2
G00X5.3124Y-3.5366
M15
G01X5.2848Y-3.5366
M16
G05
G00X5.3124Y-3.8654
M15
G01X5.2848Y-3.8654
M16
G05
T3
G00X5.4207Y-3.6134
M15
G01X5.4128Y-3.6134
M16
G05
G00X5.4207Y-3.7886
M15
G01X5.4128Y-3.7886
M16
G05
T0
M30
