G04 #@! TF.GenerationSoftware,KiCad,Pcbnew,(5.1.7)-1*
G04 #@! TF.CreationDate,2020-11-02T14:52:46+01:00*
G04 #@! TF.ProjectId,Broche lumineuse,42726f63-6865-4206-9c75-6d696e657573,rev?*
G04 #@! TF.SameCoordinates,Original*
G04 #@! TF.FileFunction,Paste,Top*
G04 #@! TF.FilePolarity,Positive*
%FSLAX46Y46*%
G04 Gerber Fmt 4.6, Leading zero omitted, Abs format (unit mm)*
G04 Created by KiCad (PCBNEW (5.1.7)-1) date 2020-11-02 14:52:46*
%MOMM*%
%LPD*%
G01*
G04 APERTURE LIST*
%ADD10R,1.350000X0.400000*%
%ADD11R,1.900000X2.900000*%
%ADD12R,0.850000X0.300000*%
%ADD13R,0.900000X0.800000*%
%ADD14R,1.060000X0.650000*%
%ADD15R,0.787000X0.280000*%
%ADD16R,0.280000X0.787000*%
%ADD17R,0.850000X0.280000*%
%ADD18R,0.750000X0.280000*%
G04 APERTURE END LIST*
G36*
G01*
X144098250Y-89991500D02*
X145010750Y-89991500D01*
G75*
G02*
X145254500Y-90235250I0J-243750D01*
G01*
X145254500Y-90722750D01*
G75*
G02*
X145010750Y-90966500I-243750J0D01*
G01*
X144098250Y-90966500D01*
G75*
G02*
X143854500Y-90722750I0J243750D01*
G01*
X143854500Y-90235250D01*
G75*
G02*
X144098250Y-89991500I243750J0D01*
G01*
G37*
G36*
G01*
X144098250Y-91866500D02*
X145010750Y-91866500D01*
G75*
G02*
X145254500Y-92110250I0J-243750D01*
G01*
X145254500Y-92597750D01*
G75*
G02*
X145010750Y-92841500I-243750J0D01*
G01*
X144098250Y-92841500D01*
G75*
G02*
X143854500Y-92597750I0J243750D01*
G01*
X143854500Y-92110250D01*
G75*
G02*
X144098250Y-91866500I243750J0D01*
G01*
G37*
G36*
G01*
X169117250Y-92120500D02*
X170029750Y-92120500D01*
G75*
G02*
X170273500Y-92364250I0J-243750D01*
G01*
X170273500Y-92851750D01*
G75*
G02*
X170029750Y-93095500I-243750J0D01*
G01*
X169117250Y-93095500D01*
G75*
G02*
X168873500Y-92851750I0J243750D01*
G01*
X168873500Y-92364250D01*
G75*
G02*
X169117250Y-92120500I243750J0D01*
G01*
G37*
G36*
G01*
X169117250Y-90245500D02*
X170029750Y-90245500D01*
G75*
G02*
X170273500Y-90489250I0J-243750D01*
G01*
X170273500Y-90976750D01*
G75*
G02*
X170029750Y-91220500I-243750J0D01*
G01*
X169117250Y-91220500D01*
G75*
G02*
X168873500Y-90976750I0J243750D01*
G01*
X168873500Y-90489250D01*
G75*
G02*
X169117250Y-90245500I243750J0D01*
G01*
G37*
G36*
G01*
X154662750Y-98683500D02*
X153750250Y-98683500D01*
G75*
G02*
X153506500Y-98439750I0J243750D01*
G01*
X153506500Y-97952250D01*
G75*
G02*
X153750250Y-97708500I243750J0D01*
G01*
X154662750Y-97708500D01*
G75*
G02*
X154906500Y-97952250I0J-243750D01*
G01*
X154906500Y-98439750D01*
G75*
G02*
X154662750Y-98683500I-243750J0D01*
G01*
G37*
G36*
G01*
X154662750Y-96808500D02*
X153750250Y-96808500D01*
G75*
G02*
X153506500Y-96564750I0J243750D01*
G01*
X153506500Y-96077250D01*
G75*
G02*
X153750250Y-95833500I243750J0D01*
G01*
X154662750Y-95833500D01*
G75*
G02*
X154906500Y-96077250I0J-243750D01*
G01*
X154906500Y-96564750D01*
G75*
G02*
X154662750Y-96808500I-243750J0D01*
G01*
G37*
G36*
G01*
X146632000Y-97452000D02*
X146287000Y-97452000D01*
G75*
G02*
X146139500Y-97304500I0J147500D01*
G01*
X146139500Y-97009500D01*
G75*
G02*
X146287000Y-96862000I147500J0D01*
G01*
X146632000Y-96862000D01*
G75*
G02*
X146779500Y-97009500I0J-147500D01*
G01*
X146779500Y-97304500D01*
G75*
G02*
X146632000Y-97452000I-147500J0D01*
G01*
G37*
G36*
G01*
X146632000Y-96482000D02*
X146287000Y-96482000D01*
G75*
G02*
X146139500Y-96334500I0J147500D01*
G01*
X146139500Y-96039500D01*
G75*
G02*
X146287000Y-95892000I147500J0D01*
G01*
X146632000Y-95892000D01*
G75*
G02*
X146779500Y-96039500I0J-147500D01*
G01*
X146779500Y-96334500D01*
G75*
G02*
X146632000Y-96482000I-147500J0D01*
G01*
G37*
G36*
G01*
X163495500Y-97075500D02*
X163840500Y-97075500D01*
G75*
G02*
X163988000Y-97223000I0J-147500D01*
G01*
X163988000Y-97518000D01*
G75*
G02*
X163840500Y-97665500I-147500J0D01*
G01*
X163495500Y-97665500D01*
G75*
G02*
X163348000Y-97518000I0J147500D01*
G01*
X163348000Y-97223000D01*
G75*
G02*
X163495500Y-97075500I147500J0D01*
G01*
G37*
G36*
G01*
X163495500Y-98045500D02*
X163840500Y-98045500D01*
G75*
G02*
X163988000Y-98193000I0J-147500D01*
G01*
X163988000Y-98488000D01*
G75*
G02*
X163840500Y-98635500I-147500J0D01*
G01*
X163495500Y-98635500D01*
G75*
G02*
X163348000Y-98488000I0J147500D01*
G01*
X163348000Y-98193000D01*
G75*
G02*
X163495500Y-98045500I147500J0D01*
G01*
G37*
G36*
G01*
X156157000Y-97919500D02*
X155812000Y-97919500D01*
G75*
G02*
X155664500Y-97772000I0J147500D01*
G01*
X155664500Y-97477000D01*
G75*
G02*
X155812000Y-97329500I147500J0D01*
G01*
X156157000Y-97329500D01*
G75*
G02*
X156304500Y-97477000I0J-147500D01*
G01*
X156304500Y-97772000D01*
G75*
G02*
X156157000Y-97919500I-147500J0D01*
G01*
G37*
G36*
G01*
X156157000Y-98889500D02*
X155812000Y-98889500D01*
G75*
G02*
X155664500Y-98742000I0J147500D01*
G01*
X155664500Y-98447000D01*
G75*
G02*
X155812000Y-98299500I147500J0D01*
G01*
X156157000Y-98299500D01*
G75*
G02*
X156304500Y-98447000I0J-147500D01*
G01*
X156304500Y-98742000D01*
G75*
G02*
X156157000Y-98889500I-147500J0D01*
G01*
G37*
G36*
G01*
X144219000Y-94889000D02*
X143874000Y-94889000D01*
G75*
G02*
X143726500Y-94741500I0J147500D01*
G01*
X143726500Y-94446500D01*
G75*
G02*
X143874000Y-94299000I147500J0D01*
G01*
X144219000Y-94299000D01*
G75*
G02*
X144366500Y-94446500I0J-147500D01*
G01*
X144366500Y-94741500D01*
G75*
G02*
X144219000Y-94889000I-147500J0D01*
G01*
G37*
G36*
G01*
X144219000Y-93919000D02*
X143874000Y-93919000D01*
G75*
G02*
X143726500Y-93771500I0J147500D01*
G01*
X143726500Y-93476500D01*
G75*
G02*
X143874000Y-93329000I147500J0D01*
G01*
X144219000Y-93329000D01*
G75*
G02*
X144366500Y-93476500I0J-147500D01*
G01*
X144366500Y-93771500D01*
G75*
G02*
X144219000Y-93919000I-147500J0D01*
G01*
G37*
G36*
G01*
X161826000Y-97602500D02*
X161826000Y-97257500D01*
G75*
G02*
X161973500Y-97110000I147500J0D01*
G01*
X162268500Y-97110000D01*
G75*
G02*
X162416000Y-97257500I0J-147500D01*
G01*
X162416000Y-97602500D01*
G75*
G02*
X162268500Y-97750000I-147500J0D01*
G01*
X161973500Y-97750000D01*
G75*
G02*
X161826000Y-97602500I0J147500D01*
G01*
G37*
G36*
G01*
X160856000Y-97602500D02*
X160856000Y-97257500D01*
G75*
G02*
X161003500Y-97110000I147500J0D01*
G01*
X161298500Y-97110000D01*
G75*
G02*
X161446000Y-97257500I0J-147500D01*
G01*
X161446000Y-97602500D01*
G75*
G02*
X161298500Y-97750000I-147500J0D01*
G01*
X161003500Y-97750000D01*
G75*
G02*
X160856000Y-97602500I0J147500D01*
G01*
G37*
G36*
G01*
X141804500Y-95526750D02*
X141804500Y-96039250D01*
G75*
G02*
X141585750Y-96258000I-218750J0D01*
G01*
X141148250Y-96258000D01*
G75*
G02*
X140929500Y-96039250I0J218750D01*
G01*
X140929500Y-95526750D01*
G75*
G02*
X141148250Y-95308000I218750J0D01*
G01*
X141585750Y-95308000D01*
G75*
G02*
X141804500Y-95526750I0J-218750D01*
G01*
G37*
G36*
G01*
X140229500Y-95526750D02*
X140229500Y-96039250D01*
G75*
G02*
X140010750Y-96258000I-218750J0D01*
G01*
X139573250Y-96258000D01*
G75*
G02*
X139354500Y-96039250I0J218750D01*
G01*
X139354500Y-95526750D01*
G75*
G02*
X139573250Y-95308000I218750J0D01*
G01*
X140010750Y-95308000D01*
G75*
G02*
X140229500Y-95526750I0J-218750D01*
G01*
G37*
D10*
X137260000Y-92705000D03*
X137260000Y-93355000D03*
X137260000Y-94005000D03*
X137260000Y-95305000D03*
X137260000Y-94655000D03*
D11*
X134585000Y-94005000D03*
D12*
X134585000Y-97505000D03*
X134585000Y-90505000D03*
D13*
X172431000Y-97434000D03*
X170431000Y-98384000D03*
X170431000Y-96484000D03*
D14*
X150206000Y-91592000D03*
X150206000Y-90642000D03*
X150206000Y-92542000D03*
X148006000Y-92542000D03*
X148006000Y-91592000D03*
X148006000Y-90642000D03*
G36*
G01*
X162375500Y-96182000D02*
X162375500Y-96527000D01*
G75*
G02*
X162228000Y-96674500I-147500J0D01*
G01*
X161933000Y-96674500D01*
G75*
G02*
X161785500Y-96527000I0J147500D01*
G01*
X161785500Y-96182000D01*
G75*
G02*
X161933000Y-96034500I147500J0D01*
G01*
X162228000Y-96034500D01*
G75*
G02*
X162375500Y-96182000I0J-147500D01*
G01*
G37*
G36*
G01*
X163345500Y-96182000D02*
X163345500Y-96527000D01*
G75*
G02*
X163198000Y-96674500I-147500J0D01*
G01*
X162903000Y-96674500D01*
G75*
G02*
X162755500Y-96527000I0J147500D01*
G01*
X162755500Y-96182000D01*
G75*
G02*
X162903000Y-96034500I147500J0D01*
G01*
X163198000Y-96034500D01*
G75*
G02*
X163345500Y-96182000I0J-147500D01*
G01*
G37*
G36*
G01*
X163345500Y-95229500D02*
X163345500Y-95574500D01*
G75*
G02*
X163198000Y-95722000I-147500J0D01*
G01*
X162903000Y-95722000D01*
G75*
G02*
X162755500Y-95574500I0J147500D01*
G01*
X162755500Y-95229500D01*
G75*
G02*
X162903000Y-95082000I147500J0D01*
G01*
X163198000Y-95082000D01*
G75*
G02*
X163345500Y-95229500I0J-147500D01*
G01*
G37*
G36*
G01*
X162375500Y-95229500D02*
X162375500Y-95574500D01*
G75*
G02*
X162228000Y-95722000I-147500J0D01*
G01*
X161933000Y-95722000D01*
G75*
G02*
X161785500Y-95574500I0J147500D01*
G01*
X161785500Y-95229500D01*
G75*
G02*
X161933000Y-95082000I147500J0D01*
G01*
X162228000Y-95082000D01*
G75*
G02*
X162375500Y-95229500I0J-147500D01*
G01*
G37*
G36*
G01*
X143266500Y-96794000D02*
X142921500Y-96794000D01*
G75*
G02*
X142774000Y-96646500I0J147500D01*
G01*
X142774000Y-96351500D01*
G75*
G02*
X142921500Y-96204000I147500J0D01*
G01*
X143266500Y-96204000D01*
G75*
G02*
X143414000Y-96351500I0J-147500D01*
G01*
X143414000Y-96646500D01*
G75*
G02*
X143266500Y-96794000I-147500J0D01*
G01*
G37*
G36*
G01*
X143266500Y-95824000D02*
X142921500Y-95824000D01*
G75*
G02*
X142774000Y-95676500I0J147500D01*
G01*
X142774000Y-95381500D01*
G75*
G02*
X142921500Y-95234000I147500J0D01*
G01*
X143266500Y-95234000D01*
G75*
G02*
X143414000Y-95381500I0J-147500D01*
G01*
X143414000Y-95676500D01*
G75*
G02*
X143266500Y-95824000I-147500J0D01*
G01*
G37*
G36*
G01*
X139329500Y-93561000D02*
X138984500Y-93561000D01*
G75*
G02*
X138837000Y-93413500I0J147500D01*
G01*
X138837000Y-93118500D01*
G75*
G02*
X138984500Y-92971000I147500J0D01*
G01*
X139329500Y-92971000D01*
G75*
G02*
X139477000Y-93118500I0J-147500D01*
G01*
X139477000Y-93413500D01*
G75*
G02*
X139329500Y-93561000I-147500J0D01*
G01*
G37*
G36*
G01*
X139329500Y-94531000D02*
X138984500Y-94531000D01*
G75*
G02*
X138837000Y-94383500I0J147500D01*
G01*
X138837000Y-94088500D01*
G75*
G02*
X138984500Y-93941000I147500J0D01*
G01*
X139329500Y-93941000D01*
G75*
G02*
X139477000Y-94088500I0J-147500D01*
G01*
X139477000Y-94383500D01*
G75*
G02*
X139329500Y-94531000I-147500J0D01*
G01*
G37*
G36*
G01*
X144219000Y-96776500D02*
X143874000Y-96776500D01*
G75*
G02*
X143726500Y-96629000I0J147500D01*
G01*
X143726500Y-96334000D01*
G75*
G02*
X143874000Y-96186500I147500J0D01*
G01*
X144219000Y-96186500D01*
G75*
G02*
X144366500Y-96334000I0J-147500D01*
G01*
X144366500Y-96629000D01*
G75*
G02*
X144219000Y-96776500I-147500J0D01*
G01*
G37*
G36*
G01*
X144219000Y-95806500D02*
X143874000Y-95806500D01*
G75*
G02*
X143726500Y-95659000I0J147500D01*
G01*
X143726500Y-95364000D01*
G75*
G02*
X143874000Y-95216500I147500J0D01*
G01*
X144219000Y-95216500D01*
G75*
G02*
X144366500Y-95364000I0J-147500D01*
G01*
X144366500Y-95659000D01*
G75*
G02*
X144219000Y-95806500I-147500J0D01*
G01*
G37*
G36*
G01*
X145144000Y-96140500D02*
X145489000Y-96140500D01*
G75*
G02*
X145636500Y-96288000I0J-147500D01*
G01*
X145636500Y-96583000D01*
G75*
G02*
X145489000Y-96730500I-147500J0D01*
G01*
X145144000Y-96730500D01*
G75*
G02*
X144996500Y-96583000I0J147500D01*
G01*
X144996500Y-96288000D01*
G75*
G02*
X145144000Y-96140500I147500J0D01*
G01*
G37*
G36*
G01*
X145144000Y-95170500D02*
X145489000Y-95170500D01*
G75*
G02*
X145636500Y-95318000I0J-147500D01*
G01*
X145636500Y-95613000D01*
G75*
G02*
X145489000Y-95760500I-147500J0D01*
G01*
X145144000Y-95760500D01*
G75*
G02*
X144996500Y-95613000I0J147500D01*
G01*
X144996500Y-95318000D01*
G75*
G02*
X145144000Y-95170500I147500J0D01*
G01*
G37*
G36*
G01*
X146287000Y-91233500D02*
X146632000Y-91233500D01*
G75*
G02*
X146779500Y-91381000I0J-147500D01*
G01*
X146779500Y-91676000D01*
G75*
G02*
X146632000Y-91823500I-147500J0D01*
G01*
X146287000Y-91823500D01*
G75*
G02*
X146139500Y-91676000I0J147500D01*
G01*
X146139500Y-91381000D01*
G75*
G02*
X146287000Y-91233500I147500J0D01*
G01*
G37*
G36*
G01*
X146287000Y-92203500D02*
X146632000Y-92203500D01*
G75*
G02*
X146779500Y-92351000I0J-147500D01*
G01*
X146779500Y-92646000D01*
G75*
G02*
X146632000Y-92793500I-147500J0D01*
G01*
X146287000Y-92793500D01*
G75*
G02*
X146139500Y-92646000I0J147500D01*
G01*
X146139500Y-92351000D01*
G75*
G02*
X146287000Y-92203500I147500J0D01*
G01*
G37*
G36*
G01*
X146695500Y-89791500D02*
X146350500Y-89791500D01*
G75*
G02*
X146203000Y-89644000I0J147500D01*
G01*
X146203000Y-89349000D01*
G75*
G02*
X146350500Y-89201500I147500J0D01*
G01*
X146695500Y-89201500D01*
G75*
G02*
X146843000Y-89349000I0J-147500D01*
G01*
X146843000Y-89644000D01*
G75*
G02*
X146695500Y-89791500I-147500J0D01*
G01*
G37*
G36*
G01*
X146695500Y-90761500D02*
X146350500Y-90761500D01*
G75*
G02*
X146203000Y-90614000I0J147500D01*
G01*
X146203000Y-90319000D01*
G75*
G02*
X146350500Y-90171500I147500J0D01*
G01*
X146695500Y-90171500D01*
G75*
G02*
X146843000Y-90319000I0J-147500D01*
G01*
X146843000Y-90614000D01*
G75*
G02*
X146695500Y-90761500I-147500J0D01*
G01*
G37*
G36*
G01*
X168018000Y-96729499D02*
X168018000Y-97279501D01*
G75*
G02*
X167768001Y-97529500I-249999J0D01*
G01*
X167217999Y-97529500D01*
G75*
G02*
X166968000Y-97279501I0J249999D01*
G01*
X166968000Y-96729499D01*
G75*
G02*
X167217999Y-96479500I249999J0D01*
G01*
X167768001Y-96479500D01*
G75*
G02*
X168018000Y-96729499I0J-249999D01*
G01*
G37*
G36*
G01*
X168018000Y-95429499D02*
X168018000Y-95979501D01*
G75*
G02*
X167768001Y-96229500I-249999J0D01*
G01*
X167217999Y-96229500D01*
G75*
G02*
X166968000Y-95979501I0J249999D01*
G01*
X166968000Y-95429499D01*
G75*
G02*
X167217999Y-95179500I249999J0D01*
G01*
X167768001Y-95179500D01*
G75*
G02*
X168018000Y-95429499I0J-249999D01*
G01*
G37*
G36*
G01*
X166718000Y-96729499D02*
X166718000Y-97279501D01*
G75*
G02*
X166468001Y-97529500I-249999J0D01*
G01*
X165917999Y-97529500D01*
G75*
G02*
X165668000Y-97279501I0J249999D01*
G01*
X165668000Y-96729499D01*
G75*
G02*
X165917999Y-96479500I249999J0D01*
G01*
X166468001Y-96479500D01*
G75*
G02*
X166718000Y-96729499I0J-249999D01*
G01*
G37*
G36*
G01*
X166718000Y-95429499D02*
X166718000Y-95979501D01*
G75*
G02*
X166468001Y-96229500I-249999J0D01*
G01*
X165917999Y-96229500D01*
G75*
G02*
X165668000Y-95979501I0J249999D01*
G01*
X165668000Y-95429499D01*
G75*
G02*
X165917999Y-95179500I249999J0D01*
G01*
X166468001Y-95179500D01*
G75*
G02*
X166718000Y-95429499I0J-249999D01*
G01*
G37*
G36*
G01*
X169193000Y-97292000D02*
X169193000Y-97417000D01*
G75*
G02*
X169130500Y-97479500I-62500J0D01*
G01*
X168405500Y-97479500D01*
G75*
G02*
X168343000Y-97417000I0J62500D01*
G01*
X168343000Y-97292000D01*
G75*
G02*
X168405500Y-97229500I62500J0D01*
G01*
X169130500Y-97229500D01*
G75*
G02*
X169193000Y-97292000I0J-62500D01*
G01*
G37*
G36*
G01*
X169193000Y-96792000D02*
X169193000Y-96917000D01*
G75*
G02*
X169130500Y-96979500I-62500J0D01*
G01*
X168405500Y-96979500D01*
G75*
G02*
X168343000Y-96917000I0J62500D01*
G01*
X168343000Y-96792000D01*
G75*
G02*
X168405500Y-96729500I62500J0D01*
G01*
X169130500Y-96729500D01*
G75*
G02*
X169193000Y-96792000I0J-62500D01*
G01*
G37*
G36*
G01*
X169193000Y-96292000D02*
X169193000Y-96417000D01*
G75*
G02*
X169130500Y-96479500I-62500J0D01*
G01*
X168405500Y-96479500D01*
G75*
G02*
X168343000Y-96417000I0J62500D01*
G01*
X168343000Y-96292000D01*
G75*
G02*
X168405500Y-96229500I62500J0D01*
G01*
X169130500Y-96229500D01*
G75*
G02*
X169193000Y-96292000I0J-62500D01*
G01*
G37*
G36*
G01*
X169193000Y-95792000D02*
X169193000Y-95917000D01*
G75*
G02*
X169130500Y-95979500I-62500J0D01*
G01*
X168405500Y-95979500D01*
G75*
G02*
X168343000Y-95917000I0J62500D01*
G01*
X168343000Y-95792000D01*
G75*
G02*
X168405500Y-95729500I62500J0D01*
G01*
X169130500Y-95729500D01*
G75*
G02*
X169193000Y-95792000I0J-62500D01*
G01*
G37*
G36*
G01*
X169193000Y-95292000D02*
X169193000Y-95417000D01*
G75*
G02*
X169130500Y-95479500I-62500J0D01*
G01*
X168405500Y-95479500D01*
G75*
G02*
X168343000Y-95417000I0J62500D01*
G01*
X168343000Y-95292000D01*
G75*
G02*
X168405500Y-95229500I62500J0D01*
G01*
X169130500Y-95229500D01*
G75*
G02*
X169193000Y-95292000I0J-62500D01*
G01*
G37*
G36*
G01*
X167968000Y-94067000D02*
X167968000Y-94792000D01*
G75*
G02*
X167905500Y-94854500I-62500J0D01*
G01*
X167780500Y-94854500D01*
G75*
G02*
X167718000Y-94792000I0J62500D01*
G01*
X167718000Y-94067000D01*
G75*
G02*
X167780500Y-94004500I62500J0D01*
G01*
X167905500Y-94004500D01*
G75*
G02*
X167968000Y-94067000I0J-62500D01*
G01*
G37*
G36*
G01*
X167468000Y-94067000D02*
X167468000Y-94792000D01*
G75*
G02*
X167405500Y-94854500I-62500J0D01*
G01*
X167280500Y-94854500D01*
G75*
G02*
X167218000Y-94792000I0J62500D01*
G01*
X167218000Y-94067000D01*
G75*
G02*
X167280500Y-94004500I62500J0D01*
G01*
X167405500Y-94004500D01*
G75*
G02*
X167468000Y-94067000I0J-62500D01*
G01*
G37*
G36*
G01*
X166968000Y-94067000D02*
X166968000Y-94792000D01*
G75*
G02*
X166905500Y-94854500I-62500J0D01*
G01*
X166780500Y-94854500D01*
G75*
G02*
X166718000Y-94792000I0J62500D01*
G01*
X166718000Y-94067000D01*
G75*
G02*
X166780500Y-94004500I62500J0D01*
G01*
X166905500Y-94004500D01*
G75*
G02*
X166968000Y-94067000I0J-62500D01*
G01*
G37*
G36*
G01*
X166468000Y-94067000D02*
X166468000Y-94792000D01*
G75*
G02*
X166405500Y-94854500I-62500J0D01*
G01*
X166280500Y-94854500D01*
G75*
G02*
X166218000Y-94792000I0J62500D01*
G01*
X166218000Y-94067000D01*
G75*
G02*
X166280500Y-94004500I62500J0D01*
G01*
X166405500Y-94004500D01*
G75*
G02*
X166468000Y-94067000I0J-62500D01*
G01*
G37*
G36*
G01*
X165968000Y-94067000D02*
X165968000Y-94792000D01*
G75*
G02*
X165905500Y-94854500I-62500J0D01*
G01*
X165780500Y-94854500D01*
G75*
G02*
X165718000Y-94792000I0J62500D01*
G01*
X165718000Y-94067000D01*
G75*
G02*
X165780500Y-94004500I62500J0D01*
G01*
X165905500Y-94004500D01*
G75*
G02*
X165968000Y-94067000I0J-62500D01*
G01*
G37*
G36*
G01*
X165343000Y-95292000D02*
X165343000Y-95417000D01*
G75*
G02*
X165280500Y-95479500I-62500J0D01*
G01*
X164555500Y-95479500D01*
G75*
G02*
X164493000Y-95417000I0J62500D01*
G01*
X164493000Y-95292000D01*
G75*
G02*
X164555500Y-95229500I62500J0D01*
G01*
X165280500Y-95229500D01*
G75*
G02*
X165343000Y-95292000I0J-62500D01*
G01*
G37*
G36*
G01*
X165343000Y-95792000D02*
X165343000Y-95917000D01*
G75*
G02*
X165280500Y-95979500I-62500J0D01*
G01*
X164555500Y-95979500D01*
G75*
G02*
X164493000Y-95917000I0J62500D01*
G01*
X164493000Y-95792000D01*
G75*
G02*
X164555500Y-95729500I62500J0D01*
G01*
X165280500Y-95729500D01*
G75*
G02*
X165343000Y-95792000I0J-62500D01*
G01*
G37*
G36*
G01*
X165343000Y-96292000D02*
X165343000Y-96417000D01*
G75*
G02*
X165280500Y-96479500I-62500J0D01*
G01*
X164555500Y-96479500D01*
G75*
G02*
X164493000Y-96417000I0J62500D01*
G01*
X164493000Y-96292000D01*
G75*
G02*
X164555500Y-96229500I62500J0D01*
G01*
X165280500Y-96229500D01*
G75*
G02*
X165343000Y-96292000I0J-62500D01*
G01*
G37*
G36*
G01*
X165343000Y-96792000D02*
X165343000Y-96917000D01*
G75*
G02*
X165280500Y-96979500I-62500J0D01*
G01*
X164555500Y-96979500D01*
G75*
G02*
X164493000Y-96917000I0J62500D01*
G01*
X164493000Y-96792000D01*
G75*
G02*
X164555500Y-96729500I62500J0D01*
G01*
X165280500Y-96729500D01*
G75*
G02*
X165343000Y-96792000I0J-62500D01*
G01*
G37*
G36*
G01*
X165343000Y-97292000D02*
X165343000Y-97417000D01*
G75*
G02*
X165280500Y-97479500I-62500J0D01*
G01*
X164555500Y-97479500D01*
G75*
G02*
X164493000Y-97417000I0J62500D01*
G01*
X164493000Y-97292000D01*
G75*
G02*
X164555500Y-97229500I62500J0D01*
G01*
X165280500Y-97229500D01*
G75*
G02*
X165343000Y-97292000I0J-62500D01*
G01*
G37*
G36*
G01*
X165968000Y-97917000D02*
X165968000Y-98642000D01*
G75*
G02*
X165905500Y-98704500I-62500J0D01*
G01*
X165780500Y-98704500D01*
G75*
G02*
X165718000Y-98642000I0J62500D01*
G01*
X165718000Y-97917000D01*
G75*
G02*
X165780500Y-97854500I62500J0D01*
G01*
X165905500Y-97854500D01*
G75*
G02*
X165968000Y-97917000I0J-62500D01*
G01*
G37*
G36*
G01*
X166468000Y-97917000D02*
X166468000Y-98642000D01*
G75*
G02*
X166405500Y-98704500I-62500J0D01*
G01*
X166280500Y-98704500D01*
G75*
G02*
X166218000Y-98642000I0J62500D01*
G01*
X166218000Y-97917000D01*
G75*
G02*
X166280500Y-97854500I62500J0D01*
G01*
X166405500Y-97854500D01*
G75*
G02*
X166468000Y-97917000I0J-62500D01*
G01*
G37*
G36*
G01*
X166968000Y-97917000D02*
X166968000Y-98642000D01*
G75*
G02*
X166905500Y-98704500I-62500J0D01*
G01*
X166780500Y-98704500D01*
G75*
G02*
X166718000Y-98642000I0J62500D01*
G01*
X166718000Y-97917000D01*
G75*
G02*
X166780500Y-97854500I62500J0D01*
G01*
X166905500Y-97854500D01*
G75*
G02*
X166968000Y-97917000I0J-62500D01*
G01*
G37*
G36*
G01*
X167468000Y-97917000D02*
X167468000Y-98642000D01*
G75*
G02*
X167405500Y-98704500I-62500J0D01*
G01*
X167280500Y-98704500D01*
G75*
G02*
X167218000Y-98642000I0J62500D01*
G01*
X167218000Y-97917000D01*
G75*
G02*
X167280500Y-97854500I62500J0D01*
G01*
X167405500Y-97854500D01*
G75*
G02*
X167468000Y-97917000I0J-62500D01*
G01*
G37*
G36*
G01*
X167968000Y-97917000D02*
X167968000Y-98642000D01*
G75*
G02*
X167905500Y-98704500I-62500J0D01*
G01*
X167780500Y-98704500D01*
G75*
G02*
X167718000Y-98642000I0J62500D01*
G01*
X167718000Y-97917000D01*
G75*
G02*
X167780500Y-97854500I62500J0D01*
G01*
X167905500Y-97854500D01*
G75*
G02*
X167968000Y-97917000I0J-62500D01*
G01*
G37*
D15*
X159863000Y-95926000D03*
X159863000Y-96426000D03*
X159863000Y-96926000D03*
X159863000Y-97426000D03*
X159863000Y-97926000D03*
X157313000Y-95926000D03*
X157313000Y-96426000D03*
X157313000Y-96926000D03*
X157313000Y-97426000D03*
X157313000Y-97926000D03*
D16*
X159088000Y-98201000D03*
X158588000Y-98201000D03*
X158088000Y-98201000D03*
X159088000Y-95651000D03*
X158588000Y-95651000D03*
X158088000Y-95651000D03*
D13*
X149793000Y-98257000D03*
X149793000Y-96357000D03*
X147793000Y-97307000D03*
D14*
X142713000Y-94193000D03*
X142713000Y-93243000D03*
X142713000Y-92293000D03*
X140513000Y-92293000D03*
X140513000Y-94193000D03*
X165595500Y-89753000D03*
X165595500Y-90703000D03*
X165595500Y-91653000D03*
X167795500Y-91653000D03*
X167795500Y-89753000D03*
X167795500Y-90703000D03*
D17*
X147933500Y-94941500D03*
D18*
X147983500Y-94441500D03*
X147983500Y-93941500D03*
X146833500Y-93941500D03*
X146833500Y-94441500D03*
X146833500Y-94941500D03*
G36*
G01*
X160753000Y-93127500D02*
X160753000Y-94377500D01*
G75*
G02*
X160603000Y-94527500I-150000J0D01*
G01*
X160303000Y-94527500D01*
G75*
G02*
X160153000Y-94377500I0J150000D01*
G01*
X160153000Y-93127500D01*
G75*
G02*
X160303000Y-92977500I150000J0D01*
G01*
X160603000Y-92977500D01*
G75*
G02*
X160753000Y-93127500I0J-150000D01*
G01*
G37*
G36*
G01*
X159753000Y-93127500D02*
X159753000Y-94377500D01*
G75*
G02*
X159603000Y-94527500I-150000J0D01*
G01*
X159303000Y-94527500D01*
G75*
G02*
X159153000Y-94377500I0J150000D01*
G01*
X159153000Y-93127500D01*
G75*
G02*
X159303000Y-92977500I150000J0D01*
G01*
X159603000Y-92977500D01*
G75*
G02*
X159753000Y-93127500I0J-150000D01*
G01*
G37*
G36*
G01*
X158753000Y-93127500D02*
X158753000Y-94377500D01*
G75*
G02*
X158603000Y-94527500I-150000J0D01*
G01*
X158303000Y-94527500D01*
G75*
G02*
X158153000Y-94377500I0J150000D01*
G01*
X158153000Y-93127500D01*
G75*
G02*
X158303000Y-92977500I150000J0D01*
G01*
X158603000Y-92977500D01*
G75*
G02*
X158753000Y-93127500I0J-150000D01*
G01*
G37*
G36*
G01*
X157753000Y-93127500D02*
X157753000Y-94377500D01*
G75*
G02*
X157603000Y-94527500I-150000J0D01*
G01*
X157303000Y-94527500D01*
G75*
G02*
X157153000Y-94377500I0J150000D01*
G01*
X157153000Y-93127500D01*
G75*
G02*
X157303000Y-92977500I150000J0D01*
G01*
X157603000Y-92977500D01*
G75*
G02*
X157753000Y-93127500I0J-150000D01*
G01*
G37*
G36*
G01*
X156753000Y-93127500D02*
X156753000Y-94377500D01*
G75*
G02*
X156603000Y-94527500I-150000J0D01*
G01*
X156303000Y-94527500D01*
G75*
G02*
X156153000Y-94377500I0J150000D01*
G01*
X156153000Y-93127500D01*
G75*
G02*
X156303000Y-92977500I150000J0D01*
G01*
X156603000Y-92977500D01*
G75*
G02*
X156753000Y-93127500I0J-150000D01*
G01*
G37*
G36*
G01*
X155753000Y-93127500D02*
X155753000Y-94377500D01*
G75*
G02*
X155603000Y-94527500I-150000J0D01*
G01*
X155303000Y-94527500D01*
G75*
G02*
X155153000Y-94377500I0J150000D01*
G01*
X155153000Y-93127500D01*
G75*
G02*
X155303000Y-92977500I150000J0D01*
G01*
X155603000Y-92977500D01*
G75*
G02*
X155753000Y-93127500I0J-150000D01*
G01*
G37*
G36*
G01*
X162353000Y-89227499D02*
X162353000Y-90527501D01*
G75*
G02*
X162103001Y-90777500I-249999J0D01*
G01*
X161402999Y-90777500D01*
G75*
G02*
X161153000Y-90527501I0J249999D01*
G01*
X161153000Y-89227499D01*
G75*
G02*
X161402999Y-88977500I249999J0D01*
G01*
X162103001Y-88977500D01*
G75*
G02*
X162353000Y-89227499I0J-249999D01*
G01*
G37*
G36*
G01*
X154753000Y-89227499D02*
X154753000Y-90527501D01*
G75*
G02*
X154503001Y-90777500I-249999J0D01*
G01*
X153802999Y-90777500D01*
G75*
G02*
X153553000Y-90527501I0J249999D01*
G01*
X153553000Y-89227499D01*
G75*
G02*
X153802999Y-88977500I249999J0D01*
G01*
X154503001Y-88977500D01*
G75*
G02*
X154753000Y-89227499I0J-249999D01*
G01*
G37*
M02*
